Coordinates
version=1
nRows=8
nColumns=40
inDegrees=yes

Units are S.I. units (second, meters, Newtons, ...)
Angles are in degrees.

endheader
time	pelvis_tilt	pelvis_list	pelvis_rotation	pelvis_tx	pelvis_ty	pelvis_tz	hip_flexion_r	hip_adduction_r	hip_rotation_r	knee_angle_r	knee_angle_r_beta	ankle_angle_r	subtalar_angle_r	mtp_angle_r	hip_flexion_l	hip_adduction_l	hip_rotation_l	knee_angle_l	knee_angle_l_beta	ankle_angle_l	subtalar_angle_l	mtp_angle_l	lumbar_extension	lumbar_bending	lumbar_rotation	arm_flex_r	arm_add_r	arm_rot_r	elbow_flex_r	pro_sup_r	wrist_flex_r	wrist_dev_r	arm_flex_l	arm_add_l	arm_rot_l	elbow_flex_l	pro_sup_l	wrist_flex_l	wrist_dev_l
     52.98000000	     -4.23870141	     -5.17503742	     -3.07483259	      1.01363691	      0.93612854	      0.40944625	     36.27390101	     -2.59521134	     -5.08114568	     62.32717858	     62.32717858	     -1.08815041	    -17.26470915	      3.77773208	      9.86838896	     -4.59943082	     -7.41575363	     19.28765168	     19.28765168	     15.04446655	    -14.51443805	      4.68465642	    -10.23586968	      7.00800074	      2.60397159	      6.82285765	    -13.00694538	     -7.05854896	     25.28682324	     46.98491191	      0.00000000	      0.00000000	      5.87972714	    -13.94987290	     -2.01754393	     68.59661296	     46.87557386	      0.00000000	      0.00000000
     52.99200000	     -4.19905474	     -5.22009953	     -3.33866179	      1.01352821	      0.93645661	      0.40965859	     36.39638336	     -2.37641245	     -5.31203404	     58.93401723	     58.93401723	     -0.80289625	    -16.56788987	      3.11012634	      8.95785110	     -4.60075420	     -7.68901169	     18.68617523	     18.68617523	     15.26708818	    -14.36401688	      4.76273976	    -10.44976723	      7.07167078	      3.00545410	      5.24716139	    -13.45594936	     -7.22184139	     23.90082388	     47.04329806	      0.00000000	      0.00000000	      6.57605436	    -13.86780956	     -2.41793004	     70.37637801	     46.94941470	      0.00000000	      0.00000000
     53.00400000	     -4.26146255	     -5.27432677	     -3.55178025	      1.01338307	      0.93648913	      0.40994322	     36.33661219	     -2.18205450	     -5.65956916	     54.94001927	     54.94001927	     -1.22689727	    -15.91547243	      0.40827233	      8.21300355	     -4.61710056	     -7.88823117	     18.16193832	     18.16193832	     15.52846905	    -14.19241030	      4.81508936	    -10.49992321	      7.15677392	      2.78448574	      4.26957397	    -13.66453476	     -7.76980747	     22.22137189	     47.15542697	      0.00000000	      0.00000000	      6.48243872	    -14.09034481	     -2.98744494	     73.10298173	     47.07146674	      0.00000000	      0.00000000
     53.01600000	     -4.28786455	     -5.40436058	     -3.71181095	      1.01323890	      0.93648713	      0.41031851	     36.06405786	     -1.88888364	     -6.03814789	     50.66750365	     50.66750365	     -0.97810258	    -14.70423949	     -0.25637168	      7.45739028	     -4.71786047	     -8.02134716	     17.69296427	     17.69296427	     15.80420906	    -14.06281694	      4.82427484	    -10.61698248	      7.34009281	      2.86024909	      2.85832453	    -13.96990705	     -7.98158819	     21.39673454	     47.19871635	      0.00000000	      0.00000000	      7.08282579	    -14.08184471	     -3.45738156	     74.35727367	     47.14356279	      0.00000000	      0.00000000
     53.02800000	     -4.45467971	     -5.56787713	     -3.82227163	      1.01307407	      0.93618989	      0.41081062	     35.71117323	     -1.53279396	     -6.47963771	     46.04546064	     46.04546064	     -0.65261711	    -13.25614804	     -0.37326299	      6.90918323	     -4.87254849	     -8.08446554	     17.31221431	     17.31221431	     16.06722530	    -13.98741299	      4.79206469	    -10.50621454	      7.58085871	      2.71704591	      1.51220972	    -14.26187448	     -8.11877085	     20.84089537	     47.22366810	      0.00000000	      0.00000000	      7.51424518	    -14.14474951	     -3.72987006	     75.39940242	     47.18931198	      0.00000000	      0.00000000
     53.04000000	     -4.51500117	     -5.60757025	     -3.95557245	      1.01306242	      0.93578662	      0.41141872	     34.96110516	     -1.28662860	     -6.91940594	     41.01404451	     41.01404451	     -1.05157304	    -11.67320888	     -2.78374928	      6.20207758	     -4.90308875	     -8.30799246	     16.87018276	     16.87018276	     16.37581081	    -13.71138058	      4.74229527	    -10.62113260	      7.59945267	      2.55017069	      0.09042646	    -14.39821655	     -8.87681272	     20.83876807	     47.28267455	      0.00000000	      0.00000000	      7.42399983	    -14.24956136	     -4.44381384	     78.18969977	     47.32797593	      0.00000000	      0.00000000
     53.05200000	     -4.61259090	     -5.72084714	     -4.02931628	      1.01312889	      0.93523025	      0.41215581	     34.11921457	     -0.89266989	     -7.36691620	     36.00485696	     36.00485696	     -0.78631113	     -9.71951876	     -2.47315018	      5.57331533	     -5.01109345	     -8.37744683	     16.50396517	     16.50396517	     16.66717698	    -13.59947910	      4.63752283	    -10.58116756	      7.75654492	      2.53958671	     -1.20491472	    -14.61320100	     -9.03785717	     20.39190967	     47.30488390	      0.00000000	      0.00000000	      7.91878030	    -14.20024715	     -4.70068322	     79.11991423	     47.37392644	      0.00000000	      0.00000000
     53.06400000	     -4.68170058	     -5.77857257	     -4.08862389	      1.01337961	      0.93450274	      0.41301743	     33.10369330	     -0.54293084	     -7.89495790	     31.05226933	     31.05226933	     -0.56220620	     -7.44851762	     -1.88455708	      4.88567882	     -5.06832727	     -8.49379131	     16.10338154	     16.10338154	     16.97661620	    -13.40454977	      4.47240692	    -10.55691821	      7.80759757	      2.53375376	     -2.55326333	    -14.77362567	     -9.27222962	     20.15373674	     47.32343276	      0.00000000	      0.00000000	      8.29091279	    -14.14394876	     -4.94148788	     80.35615829	     47.42445150	      0.00000000	      0.00000000
